<?xml version="1.0" standalone="no"?>
<!DOCTYPE svg PUBLIC "-//W3C//DTD SVG 20010904//EN"
 "http://www.w3.org/TR/2001/REC-SVG-20010904/DTD/svg10.dtd">
<svg version="1.0" xmlns="http://www.w3.org/2000/svg"
 width="6000.000000pt" height="3375.000000pt" viewBox="0 0 6000.000000 3375.000000"
 preserveAspectRatio="xMidYMid meet">

<g transform="translate(0.000000,3375.000000) scale(0.100000,-0.100000)"
fill="#000000" stroke="none">
<path d="M15273 32980 c-297 -32 -633 -183 -854 -387 -311 -285 -486 -629
-529 -1040 -7 -67 -10 -4699 -7 -14743 3 -13831 4 -14650 20 -14730 42 -206
126 -426 220 -575 83 -133 241 -309 362 -406 181 -145 423 -257 669 -312 l101
-22 14745 0 14745 0 120 28 c496 118 885 426 1094 867 87 185 132 348 151 552
8 80 10 4445 8 14733 -3 13962 -4 14624 -21 14714 -86 454 -312 807 -680 1059
-159 109 -361 195 -575 244 l-97 23 -14700 1 c-8085 1 -14733 -2 -14772 -6z
m9947 -7615 c1362 -77 2712 -293 4260 -681 660 -165 1084 -284 1705 -481 2606
-823 4950 -1909 6885 -3188 1433 -947 2535 -1975 3088 -2880 294 -481 434
-890 449 -1306 9 -241 -22 -428 -103 -631 -81 -204 -195 -372 -373 -549 -281
-280 -630 -479 -1141 -649 -227 -76 -653 -189 -630 -167 3 3 57 26 120 52 462
188 790 453 961 780 152 289 179 602 84 981 -269 1071 -1631 2413 -3745 3690
-2676 1618 -6322 2967 -9510 3518 -1100 190 -2012 278 -2910 278 -643 1 -1057
-29 -1525 -108 -1042 -177 -1716 -553 -1970 -1098 -132 -283 -150 -591 -55
-955 46 -176 135 -388 244 -580 20 -35 35 -66 33 -68 -9 -9 -232 293 -353 477
-276 422 -452 853 -504 1235 -18 132 -13 374 9 505 31 179 108 389 193 525
110 174 302 382 471 509 638 478 1687 754 3067 806 290 11 926 4 1250 -15z
m-5665 -313 c-128 -56 -435 -215 -533 -276 -513 -323 -847 -742 -966 -1212
-46 -183 -59 -287 -60 -484 0 -327 64 -629 211 -990 535 -1314 2093 -2846
4358 -4287 1128 -717 2413 -1400 3850 -2047 l270 -121 1445 -5 c1425 -6 1447
-6 1585 -28 805 -126 1417 -403 1983 -896 189 -164 417 -432 552 -649 49 -78
58 -87 80 -82 124 25 266 28 1550 32 1415 5 1478 3 1720 -38 648 -112 1224
-450 1583 -929 42 -56 77 -105 79 -110 10 -29 1041 -49 1538 -31 994 37 1829
165 2498 382 1154 376 1805 972 1958 1794 24 124 27 524 6 645 -61 349 -170
667 -338 989 -30 57 -53 106 -51 108 2 1 42 -50 89 -115 660 -907 978 -1707
978 -2465 0 -477 -152 -940 -434 -1327 -701 -959 -2248 -1547 -4439 -1689
-253 -17 -954 -34 -1189 -29 -120 2 -218 4 -218 3 0 -1 61 -505 135 -1121 84
-690 134 -1134 130 -1158 -28 -190 -287 -418 -755 -668 -617 -330 -1390 -589
-2096 -703 l-155 -25 -955 0 c-1048 0 -1005 -2 -1327 64 l-119 24 -124 -74
c-877 -519 -2015 -939 -3089 -1138 -563 -105 -1048 -153 -1650 -163 -995 -16
-1917 105 -2870 377 -1178 336 -2416 952 -2789 1387 -79 92 -142 214 -155 298
-7 50 26 407 204 2175 117 1163 216 2176 219 2250 20 395 116 756 296 1110
236 462 631 891 1097 1192 62 40 112 75 113 78 0 3 -80 48 -177 100 -2633
1413 -4745 3060 -5905 4605 -573 763 -892 1443 -1005 2139 -24 151 -29 516 -8
676 51 405 209 778 473 1120 90 116 325 348 452 446 487 377 1036 633 1810
845 198 54 232 59 145 21z m8385 -1988 c260 -26 442 -65 682 -144 1115 -370
2002 -1360 2263 -2525 180 -805 53 -1679 -350 -2404 -169 -304 -334 -521 -589
-777 -245 -244 -460 -411 -731 -566 -396 -226 -877 -379 -1350 -429 -174 -19
-548 -16 -725 5 -842 100 -1584 481 -2153 1104 -512 561 -827 1273 -897 2025
-16 176 -13 524 5 685 89 769 429 1471 989 2040 370 377 782 643 1259 816 272
98 514 149 847 179 115 10 621 4 750 -9z m6470 -3898 c482 -85 904 -308 1260
-665 370 -372 601 -827 687 -1356 25 -154 25 -525 0 -682 -80 -505 -298 -951
-639 -1308 -606 -636 -1469 -891 -2308 -684 -586 145 -1106 516 -1440 1029
-83 127 -210 388 -258 530 -82 240 -120 448 -129 710 -23 656 225 1276 702
1756 214 216 394 345 660 474 227 111 418 170 665 205 137 20 669 14 800 -9z"/>
</g>
</svg>
